<svg width="26" height="19" viewBox="0 0 26 19" fill="none" xmlns="http://www.w3.org/2000/svg">
<g clip-path="url(#clip0_108_79)">
<path d="M20.3079 0H25.9237V3.49043H20.3079V0ZM20.3079 4.84782H25.9237V8.33825H20.3079V4.84782ZM20.3079 9.69564H25.9237V13.1861H20.3079V9.69564ZM0 14.5435H5.6158V18.0339H0V14.5435ZM6.76931 14.5435H12.3548V18.0339H6.76931V14.5435ZM13.5386 14.5435H19.1544V18.0339H13.5386V14.5435ZM20.3079 14.5435H25.9237V18.0339H20.3079V14.5435ZM13.5386 9.69564H19.1544V13.1861H13.5386V9.69564ZM6.76931 9.69564H12.3548V13.1861H6.76931V9.69564ZM6.76931 4.84782H12.3548V8.33825H6.76931V4.84782Z" fill="#F5EDF8"/>
</g>
<defs>
<clipPath id="clip0_108_79">
<rect width="25.9237" height="18.0339" fill="white"/>
</clipPath>
</defs>
</svg>
