<svg width="29" height="23" viewBox="0 0 29 23" fill="none" xmlns="http://www.w3.org/2000/svg">
<g clip-path="url(#clip0_60_17)">
<path d="M29 7.41619V20.3864C29 21.1051 28.7465 21.7204 28.2394 22.2322C27.7323 22.7441 27.1228 23 26.4107 23H2.58929C1.87723 23 1.26767 22.7441 0.760602 22.2322C0.253531 21.7204 0 21.1051 0 20.3864V7.41619C0.474705 7.94981 1.01953 8.42353 1.63449 8.83736C5.54001 11.5163 8.22097 13.3949 9.67746 14.473C10.2924 14.9304 10.7914 15.287 11.1744 15.543C11.5574 15.7989 12.0671 16.0602 12.7037 16.3271C13.3402 16.5939 13.9336 16.7273 14.4838 16.7273H14.5H14.5162C15.0664 16.7273 15.6598 16.5939 16.2963 16.3271C16.9329 16.0602 17.4426 15.7989 17.8256 15.543C18.2086 15.287 18.7076 14.9304 19.3225 14.473C21.1566 13.1335 23.843 11.255 27.3817 8.83736C27.9967 8.41264 28.5361 7.93892 29 7.41619ZM29 2.61364C29 3.47396 28.7357 4.29616 28.207 5.08026C27.6784 5.86435 27.0203 6.53409 26.2327 7.08949C22.1761 9.93183 19.6516 11.7015 18.659 12.3984C18.5512 12.4747 18.3219 12.6407 17.9713 12.8967C17.6206 13.1526 17.3293 13.3595 17.0974 13.5174C16.8654 13.6753 16.5849 13.8523 16.2559 14.0483C15.9268 14.2443 15.6166 14.3913 15.3253 14.4893C15.034 14.5874 14.7643 14.6364 14.5162 14.6364H14.5H14.4838C14.2357 14.6364 13.966 14.5874 13.6747 14.4893C13.3834 14.3913 13.0732 14.2443 12.7441 14.0483C12.4151 13.8523 12.1346 13.6753 11.9026 13.5174C11.6707 13.3595 11.3794 13.1526 11.0287 12.8967C10.6781 12.6407 10.4488 12.4747 10.341 12.3984C9.35918 11.7015 7.94588 10.7077 6.101 9.41726C4.25613 8.12677 3.1503 7.35085 2.78348 7.08949C2.11458 6.6321 1.48345 6.0032 0.890067 5.20277C0.296686 4.40234 0 3.65909 0 2.97301C0 2.12357 0.223863 1.41572 0.671596 0.849432C1.11933 0.283141 1.75855 0 2.58929 0H26.4107C27.112 0 27.7188 0.255916 28.2313 0.767755C28.7438 1.2796 29 1.89488 29 2.61364Z" fill="#341E47"/>
</g>
<defs>
<clipPath id="clip0_60_17">
<rect width="29" height="23" fill="white"/>
</clipPath>
</defs>
</svg>
