<svg width="24" height="25" viewBox="0 0 24 25" fill="none" xmlns="http://www.w3.org/2000/svg">
<path d="M23.9375 7.09375C23.9167 6.57291 23.8594 6.05729 23.7656 5.54688C23.6719 5.03646 23.5313 4.55209 23.3438 4.09375L23.375 4.15625C23.0625 3.34375 22.6042 2.63542 22 2.03125C21.3958 1.42708 20.6979 0.968752 19.9062 0.65625L19.875 0.625C19.4375 0.458333 18.974 0.328125 18.4844 0.234375C17.9948 0.140625 17.4896 0.09375 16.9688 0.09375H16.9375C16.2917 0.052083 15.7135 0.026042 15.2031 0.015625C14.6927 0.005208 13.625 0 12 0C10.375 0 9.30209 0.005208 8.78125 0.015625C8.26041 0.026042 7.6875 0.052083 7.0625 0.09375C6.52083 0.09375 6.00521 0.145833 5.51562 0.25C5.02604 0.354167 4.55209 0.489583 4.09375 0.65625L4.125 0.625C3.33333 0.958335 2.63542 1.42708 2.03125 2.03125C1.42708 2.63542 0.968752 3.32291 0.65625 4.09375L0.625 4.15625C0.458333 4.59375 0.328125 5.05729 0.234375 5.54688C0.140625 6.03646 0.083333 6.54166 0.0625 7.0625C0.041667 7.70834 0.026042 8.28646 0.015625 8.79688C0.005208 9.30729 0 10.375 0 12C0 13.625 0 14.6979 0 15.2188C0 15.7396 0.020833 16.3229 0.0625 16.9688C0.083333 17.4688 0.140625 17.9583 0.234375 18.4375C0.328125 18.9167 0.458333 19.3958 0.625 19.875C0.937502 20.6875 1.39583 21.3958 2 22C2.60417 22.6042 3.30208 23.0625 4.09375 23.375H4.15625C4.57292 23.5625 5.02604 23.7083 5.51562 23.8125C6.00521 23.9167 6.51041 23.9688 7.03125 23.9688H7.0625C7.70834 24.0104 8.28646 24.0365 8.79688 24.0469C9.30729 24.0573 10.375 24.0625 12 24.0625C13.625 24.0625 14.6979 24.0573 15.2188 24.0469C15.7396 24.0365 16.3125 24.0104 16.9375 23.9688C17.4792 23.9688 17.9948 23.9167 18.4844 23.8125C18.974 23.7083 19.4583 23.5729 19.9375 23.4062L19.875 23.4375C20.6667 23.1042 21.3646 22.6354 21.9688 22.0312C22.5729 21.4271 23.0312 20.7396 23.3438 19.9688L23.375 19.9062C23.5417 19.4479 23.6719 18.974 23.7656 18.4844C23.8594 17.9948 23.9167 17.5 23.9375 17C23.9583 16.3542 23.974 15.776 23.9844 15.2656C23.9948 14.7552 24 13.6875 24 12.0625C24 10.4167 24 9.33854 24 8.82812C24 8.31771 23.9792 7.73959 23.9375 7.09375ZM12 18.1562C11.1458 18.1562 10.3438 18 9.59375 17.6875C8.84375 17.3542 8.1875 16.9115 7.625 16.3594C7.0625 15.8073 6.625 15.1563 6.3125 14.4062C5.97917 13.6562 5.8125 12.8542 5.8125 12C5.8125 11.1458 5.97917 10.3438 6.3125 9.59375C6.625 8.84375 7.0625 8.19271 7.625 7.64062C8.1875 7.08854 8.84375 6.64583 9.59375 6.3125C10.3438 6 11.1458 5.84375 12 5.84375C12.8542 5.84375 13.6562 6 14.4062 6.3125C15.1354 6.64583 15.7812 7.08854 16.3438 7.64062C16.9063 8.19271 17.3437 8.84375 17.6562 9.59375C17.9896 10.3438 18.1562 11.1458 18.1562 12C18.1562 12.8542 17.9896 13.6562 17.6562 14.4062C17.3437 15.1563 16.9063 15.8073 16.3438 16.3594C15.7812 16.9115 15.1354 17.3542 14.4062 17.6875C13.6562 18 12.8542 18.1562 12 18.1562ZM18.4062 7.0625C18.0104 7.0625 17.6719 6.92188 17.3906 6.64062C17.1094 6.35937 16.9688 6.02083 16.9688 5.625C16.9688 5.22917 17.1094 4.89063 17.3906 4.60938C17.6719 4.32812 18.0104 4.1875 18.4062 4.1875C18.8021 4.1875 19.1406 4.32812 19.4219 4.60938C19.7031 4.89063 19.8438 5.22917 19.8438 5.625C19.8438 6.02083 19.7031 6.35937 19.4219 6.64062C19.1406 6.92188 18.8021 7.0625 18.4062 7.0625ZM16 12C16 13.1042 15.6094 14.0469 14.8281 14.8281C14.0469 15.6094 13.1042 16 12 16C10.8958 16 9.95313 15.6094 9.17188 14.8281C8.39062 14.0469 8 13.1042 8 12C8 10.8958 8.39062 9.95313 9.17188 9.17188C9.95313 8.39062 10.8958 8 12 8C13.1042 8 14.0469 8.39062 14.8281 9.17188C15.6094 9.95313 16 10.8958 16 12Z" fill="#341E47"/>
</svg>
