<svg width="145" height="116" viewBox="0 0 145 116" fill="none" xmlns="http://www.w3.org/2000/svg">
<path d="M67.9327 46.6322L59.8419 46.6867C54.6819 35.0663 43.8863 45.8855 42.9977 54.4103C45.8428 53.648 47.1055 51.6802 50.3792 51.2913C72.6407 48.6312 69.0785 83.088 47.4017 82.3569C25.7248 81.6335 32.5295 44.0577 45.8661 37.4463C54.9313 32.9506 66.7246 35.2063 67.9405 46.6322H67.9327ZM43.2394 73.6143C51.1743 82.2635 62.6714 64.7162 54.6741 58.696C46.3338 52.4113 36.6529 66.4274 43.2394 73.6143Z" fill="#341E47"/>
<path d="M101.06 35.751C102.993 36.2954 101.395 40.4256 100.6 41.5145C98.3944 44.5402 83.1949 41.3745 81.8776 43.2101L79.6327 52.0771C92.5562 47.3947 100.686 53.5939 99.1193 67.2521C97.1083 84.6983 69.0788 88.0196 66.3896 69.57L74.8702 69.2822C76.2343 77.9081 87.4663 77.1458 90.3347 69.3833C94.7543 57.444 82.5947 53.1972 75.3691 61.9086L69.4919 60.6408L76.5071 35.7588H101.06V35.751Z" fill="#341E47"/>
<path d="M31.0487 39.1031C35.9749 44.9755 33.2078 54.8614 25.8341 57.1404C32.9194 60.8661 33.5274 68.5119 29.7626 75.0533C23.4022 86.1137 -1.88359 84.5036 0.111835 68.4108L7.82072 68.5041C7.82072 77.9467 22.1628 77.7134 23.4567 69.5308C25.2963 57.8404 12.5287 61.2161 12.5754 60.2361L14.2513 53.7336C19.1229 53.8425 24.8832 53.928 25.1404 47.8145C25.3041 44.0032 23.8465 42.0432 20.0115 41.8876C13.9629 41.6387 14.3526 46.5 12.0766 47.2856C10.1513 47.9389 6.93993 47.1145 4.8042 47.41C5.54469 35.9685 24.3921 31.1616 31.0565 39.1031H31.0487Z" fill="#341E47"/>
<path d="M124.054 59.8545C121.123 114.239 52.8424 135.893 17.6418 94.0935C16.3012 92.499 12.4662 87.5211 11.8115 85.9032C11.0476 84.0054 15.4905 84.5576 16.4804 85.141C17.1586 85.5454 21.0091 91.8301 22.3186 93.3157C54.6118 130.013 117.21 109.012 120.063 60.3134L124.054 59.8545Z" fill="#341E47"/>
<path d="M118.598 33.4094C116.86 33.3939 115.028 33.8294 113.47 32.7016C112.495 31.9938 107.514 23.6013 105.363 21.3457C83.3745 -1.81742 44.8067 -1.84853 23.0986 21.7346C18.6245 26.5958 16.5355 34.0083 9.46582 34.9573C30.3554 -10.9022 96.4383 -11.8667 118.591 33.4017L118.598 33.4094Z" fill="#341E47"/>
<path d="M108.309 35.9062C109.213 36.4351 111.598 43.2175 113.524 42.7431C116.821 39.3674 116.634 34.2183 122.495 35.7506L115.745 46.2432L123.283 57.5136C116.922 59.1237 116.291 54.1768 113.532 49.7355C109.245 51.9834 109.439 59.3881 103.017 57.5136L110.071 46.9821L103.017 35.7506C104.466 35.9839 107.195 35.2528 108.317 35.9062H108.309Z" fill="#341E47"/>
<path d="M134.195 43.5206C138.139 40.4871 137.937 34.1869 144.321 35.7503L137.313 46.2429L144.321 57.5133C138.249 58.96 137.89 53.2276 134.585 49.7508C130.711 52.932 130.992 59.17 124.842 57.5133L131.724 46.3673L124.842 35.7503C130.353 34.4513 132.286 39.3904 134.203 43.5206H134.195Z" fill="#341E47"/>
</svg>
